<?xml version="1.0" encoding="UTF-8" standalone="no"?>
<!DOCTYPE svg PUBLIC "-//W3C//DTD SVG 1.1//EN" "http://www.w3.org/Graphics/SVG/1.1/DTD/svg11.dtd">
<svg width="100%" height="100%" viewBox="0 0 914 500" version="1.1" xmlns="http://www.w3.org/2000/svg" xmlns:xlink="http://www.w3.org/1999/xlink" xml:space="preserve" xmlns:serif="http://www.serif.com/" style="fill-rule:evenodd;clip-rule:evenodd;stroke-linejoin:round;stroke-miterlimit:2;">
    <g transform="matrix(1,0,0,1,-1849,0)">
        <path d="M2267.31,56.18C2223.81,21.04 2168.4,0 2107.92,0C1968.43,0 1855.28,111.97 1855.28,250C1855.28,388.03 1968.43,500 2107.92,500C2168.4,500 2223.81,478.96 2267.31,443.82C2224.39,390.73 2198.64,323.36 2198.64,250C2198.64,176.64 2224.39,109.27 2267.31,56.18Z" style="fill:rgb(0,29,84);fill-rule:nonzero;"/>
    </g>
    <g transform="matrix(1,0,0,1,-1849,0)">
        <path d="M2512.74,500C2650.78,500 2762.74,388.03 2762.74,250C2762.74,111.97 2650.78,0 2512.74,0C2374.7,0 2262.74,111.97 2262.74,250C2262.74,388.03 2374.71,500 2512.74,500Z" style="fill:rgb(168,170,173);fill-rule:nonzero;"/>
    </g>
</svg>
