<?xml version="1.0" encoding="UTF-8"?>
<svg id="Ebene_1" data-name="Ebene 1" xmlns="http://www.w3.org/2000/svg" viewBox="0 0 2762.75 500">
  <defs>
    <style>
      .cls-1 {
        fill: #001d54;
      }

      .cls-2 {
        fill: #a8aaad;
      }
    </style>
  </defs>
  <g>
    <path class="cls-1" d="M850.79,303.35c0,47.87-39.21,86.86-87.79,86.86s-87.79-38.8-87.79-86.86V56.11h-61.26v247.24c0,81.45,66.72,147.46,149.05,147.46s149.05-66.01,149.05-147.46V56.11h-61.26v247.24Z"/>
    <polygon class="cls-1" points="405.79 56.11 344.33 56.11 344.33 443.66 344.33 443.86 571.81 443.86 571.81 387.88 405.79 387.88 405.79 56.11"/>
    <path class="cls-1" d="M157.83,56.3H0v387.56h61.26v-140.51h96.37c69.06,0,124.86-55.39,124.86-123.52h.2c0-68.32-55.99-123.52-124.86-123.52ZM157.83,247.38H61.45V112.27h96.37c37.65,0,68.28,30.3,68.28,67.55s-30.63,67.55-68.28,67.55Z"/>
    <polygon class="cls-1" points="1257.36 56.3 970.18 56.3 970.18 112.27 1083.14 112.27 1083.14 443.86 1144.4 443.86 1144.4 112.27 1257.36 112.27 1257.36 56.3"/>
    <path class="cls-1" d="M1392.75,56.3l-150.03,387.56h62.43l31.41-84.54h171.87l31.41,84.54h62.82l-150.03-387.56h-59.89ZM1487.95,303.35h-130.13l65.16-174.48,65.16,174.48h-.2Z"/>
    <path class="cls-1" d="M2267.31,56.18c-43.5-35.14-98.91-56.18-159.39-56.18-139.49,0-252.64,111.97-252.64,250s113.15,250,252.64,250c60.48,0,115.89-21.04,159.39-56.18-42.92-53.09-68.67-120.46-68.67-193.82s25.75-140.73,68.67-193.82Z"/>
  </g>
  <path class="cls-2" d="M2512.74,500c138.04,0,250-111.97,250-250S2650.78,0,2512.74,0s-250,111.97-250,250,111.97,250,250,250Z"/>
</svg>